<?xml version="1.0" standalone="no"?>
<!DOCTYPE svg PUBLIC "-//W3C//DTD SVG 20010904//EN"
 "http://www.w3.org/TR/2001/REC-SVG-20010904/DTD/svg10.dtd">
<svg version="1.0" xmlns="http://www.w3.org/2000/svg"
 width="640.000000pt" height="640.000000pt" viewBox="0 0 640.000000 640.000000"
 preserveAspectRatio="xMidYMid meet">
<metadata>
Created by potrace 1.11, written by Peter Selinger 2001-2013
</metadata>
<g transform="translate(0.000000,640.000000) scale(0.100000,-0.100000)"
fill="#000000" stroke="none">
<path d="M668 4482 l-28 -3 0 -107 c-2 -695 1 -1966 3 -1969 3 -3 1016 -5
1807 -3 l116 0 -4 40 -4 40 -57 0 c-31 0 -444 1 -919 0 l-862 0 0 960 0 960
2480 0 2480 0 0 -960 0 -959 -777 0 c-428 0 -842 -1 -920 -1 l-143 0 0 -40 c0
-38 1 -40 33 -40 378 -2 1881 1 1884 3 5 5 5 2069 0 2074 -5 4 -5050 9 -5089
5z"/>
<path d="M1176 3751 c-2 -3 -4 -111 -4 -239 l0 -233 132 2 c107 1 138 5 168
20 48 24 78 80 68 127 -4 17 -5 32 -2 32 15 0 -38 45 -71 60 -37 17 -37 18
-14 24 49 12 76 90 50 144 -24 50 -69 64 -205 66 -66 1 -121 0 -122 -3z m218
-90 c9 -7 16 -24 16 -37 0 -36 -26 -54 -80 -54 -47 0 -48 1 -51 33 -8 67 -3
75 50 73 26 -1 56 -7 65 -15z m19 -185 c25 -19 30 -71 9 -95 -13 -15 -32 -21
-76 -24 -64 -3 -69 1 -68 56 1 82 -4 77 60 77 32 0 65 -7 75 -14z"/>
<path d="M2205 3749 c-43 -12 -91 -62 -108 -112 -22 -66 -16 -204 12 -257 26
-51 37 -62 80 -85 94 -48 223 -6 262 87 14 35 6 45 -43 51 -34 4 -39 2 -57
-29 -26 -43 -56 -56 -96 -40 -43 17 -65 67 -65 146 0 90 14 132 49 153 46 27
93 11 112 -40 6 -17 14 -21 36 -17 50 9 63 15 63 32 0 26 -59 93 -96 108 -37
16 -103 17 -149 3z"/>
<path d="M4979 3713 c-13 -43 -18 -48 -47 -51 -29 -3 -32 -6 -32 -38 0 -31 3
-34 28 -34 l29 0 0 -118 c0 -125 7 -151 48 -178 26 -17 105 -24 164 -15 32 6
36 10 38 39 l1 32 -56 -5 c-86 -9 -93 0 -96 121 -2 54 -1 105 2 112 3 8 26 12
68 12 l64 0 0 35 0 35 -68 0 -68 0 2 50 c1 50 1 50 -31 50 -29 0 -33 -4 -46
-47z"/>
<path d="M1735 3655 c-103 -36 -144 -190 -80 -301 58 -98 235 -106 304 -13 13
17 21 32 19 34 -1 1 -22 5 -44 8 -35 5 -45 2 -65 -19 -45 -48 -129 -12 -132
57 l-2 33 125 0 c140 1 133 -4 116 85 -6 30 -20 55 -45 80 -52 52 -117 64
-196 36z m125 -71 c10 -11 22 -30 25 -44 l6 -26 -75 1 c-41 0 -77 3 -81 6 -12
13 7 56 32 71 33 20 69 16 93 -8z"/>
<path d="M2669 3660 c-75 -22 -114 -82 -118 -179 -2 -67 20 -132 57 -164 70
-63 219 -51 271 22 43 60 49 179 14 248 -35 67 -136 100 -224 73z m123 -91
c14 -19 19 -42 19 -92 0 -83 -18 -122 -62 -131 -75 -15 -103 46 -90 190 1 6
11 23 22 38 28 36 83 33 111 -5z"/>
<path d="M3195 3659 c-11 -6 -31 -24 -46 -40 l-25 -29 0 33 c1 31 0 32 -46 35
l-48 3 0 -190 0 -191 50 0 50 0 0 123 c0 135 15 180 62 189 66 12 78 -16 78
-182 l0 -130 50 0 50 0 0 146 c0 163 -11 204 -61 229 -33 17 -85 19 -114 4z"/>
<path d="M3655 3655 c-17 -8 -38 -28 -48 -43 l-16 -27 -1 38 0 37 -48 0 -48 0
1 -187 1 -188 49 0 50 0 0 115 c0 131 13 174 53 188 29 10 65 1 78 -19 4 -7 8
-73 8 -148 l1 -136 50 0 49 0 1 125 c0 148 -8 197 -39 229 -30 30 -99 38 -141
16z"/>
<path d="M4065 3659 c-38 -11 -89 -64 -104 -108 -25 -77 -4 -189 46 -233 50
-45 167 -55 227 -20 30 18 73 68 65 76 -3 3 -22 7 -43 9 -30 4 -43 0 -63 -20
-20 -21 -31 -24 -59 -20 -19 3 -41 13 -50 21 -16 17 -37 76 -29 84 2 3 61 5
131 5 l127 0 -6 53 c-13 123 -118 190 -242 153z m104 -64 c29 -15 41 -33 41
-64 0 -14 -11 -16 -75 -16 -66 0 -75 2 -75 18 0 28 19 57 43 67 31 12 34 12
66 -5z"/>
<path d="M4510 3648 c-61 -31 -92 -92 -91 -179 0 -125 65 -193 182 -193 71 1
133 36 155 91 9 19 14 36 12 38 -4 4 -56 8 -81 6 -10 -1 -22 -12 -27 -25 -17
-45 -67 -57 -105 -24 -23 20 -27 32 -30 93 -3 49 1 79 12 102 25 54 89 56 121
5 9 -15 24 -26 32 -26 8 1 30 2 47 3 31 1 32 2 22 29 -35 91 -152 129 -249 80z"/>
<path d="M2762 2859 c-41 -15 -42 -22 -42 -434 0 -219 2 -400 5 -403 8 -8 946
-8 951 0 7 11 5 793 -2 811 -3 9 -16 19 -27 23 -27 9 -862 11 -885 3z m871
-38 c13 -2 8 -71 -5 -72 -7 0 -204 -1 -438 -1 l-425 -1 -3 28 c-2 14 -1 32 1
38 3 9 115 12 433 11 236 -1 432 -2 437 -3z m7 -133 c1 -21 0 -511 0 -598 l0
-35 -437 1 c-241 1 -440 2 -443 3 -3 1 -4 117 -3 259 1 141 2 287 3 325 l0 67
440 0 440 0 0 -22z"/>
<path d="M3260 2628 c0 -2 -40 -102 -89 -223 -56 -138 -86 -224 -80 -230 6 -6
14 -4 23 5 19 20 186 432 180 442 -5 7 -34 12 -34 6z"/>
<path d="M2956 2480 c-100 -56 -100 -60 -8 -113 55 -32 81 -42 89 -35 18 14
10 23 -47 55 -28 15 -50 31 -50 34 0 3 20 16 45 29 51 26 70 44 60 60 -9 15
-13 13 -89 -30z"/>
<path d="M3355 2510 c-10 -16 2 -27 55 -56 47 -26 63 -44 39 -44 -15 0 -99
-59 -99 -70 0 -21 44 -8 110 32 39 22 70 45 70 49 0 9 -148 99 -162 99 -4 0
-10 -4 -13 -10z"/>
</g>
</svg>
